<svg width="20" height="21" viewBox="0 0 20 21" fill="none" xmlns="http://www.w3.org/2000/svg">
<path d="M10 0.598877C4.47715 0.598877 0 5.07603 0 10.5989C0 16.1217 4.47715 20.5989 10 20.5989C15.5228 20.5989 20 16.1217 20 10.5989C19.9936 5.07869 15.5202 0.605306 10 0.598877Z" fill="#E4202D" fill-opacity="0.2"/>
<path d="M15.7724 7.43225L10.0683 15.1731C9.93221 15.3536 9.72936 15.4718 9.50527 15.5013C9.28118 15.5308 9.05465 15.4689 8.87659 15.3298L4.80325 12.0731C4.44381 11.7854 4.3856 11.2609 4.67325 10.9014C4.9609 10.542 5.48547 10.4838 5.84492 10.7714L9.24159 13.4889L14.4308 6.44642C14.6009 6.19108 14.8976 6.0499 15.2031 6.07895C15.5086 6.10799 15.7734 6.30256 15.8923 6.58539C16.0113 6.86823 15.9653 7.19357 15.7724 7.43225Z" fill="#E4202D"/>
</svg>
