<svg width="60" height="60" viewBox="0 0 60 60" fill="none" xmlns="http://www.w3.org/2000/svg">
<path d="M19.7692 17.1561C12.9888 17.1561 7.49219 22.6527 7.49219 29.4331C7.49219 36.2134 12.9888 41.7101 19.7692 41.7101C26.5495 41.7101 32.0462 36.2134 32.0462 29.4331C32.0462 22.6527 26.5495 17.1561 19.7692 17.1561ZM28.8551 24.8292H24.4305C24.0073 22.7089 23.3464 20.9951 22.6715 19.6729C25.3753 20.4797 27.5948 22.3545 28.8551 24.8292ZM22.8384 29.4331C22.8384 30.3464 22.77 31.1855 22.676 31.9908H16.8627C16.7684 31.1855 16.6998 30.3463 16.6998 29.4331C16.6998 28.5193 16.7672 27.6804 16.8607 26.8754H22.6781C22.771 27.6804 22.8384 28.5195 22.8384 29.4331ZM19.4715 19.2322C19.5724 19.2292 19.6673 19.2022 19.7692 19.2022C19.8721 19.2022 19.9674 19.2297 20.0698 19.2327C20.8377 20.4106 21.7714 22.2741 22.3367 24.8292H17.2019C17.77 22.2652 18.7071 20.4027 19.4715 19.2322ZM16.8668 19.6729C16.1944 20.9923 15.533 22.708 15.1094 24.8292H10.6833C11.9438 22.3545 14.1632 20.4802 16.8668 19.6729ZM9.53835 29.4331C9.53835 28.5448 9.68772 27.6977 9.90155 26.8754H14.7987C14.7132 27.6857 14.6538 28.5284 14.6538 29.4331C14.6538 30.3383 14.7148 31.18 14.8016 31.9908H9.90155C9.68772 31.1685 9.53835 30.3214 9.53835 29.4331ZM10.6833 34.037H15.1144C15.5421 36.162 16.2039 37.8905 16.8639 39.1924C14.1617 38.3851 11.9432 36.5108 10.6833 34.037ZM20.0664 39.634C19.9655 39.6371 19.8711 39.6639 19.7692 39.6639C19.6673 39.6639 19.5729 39.6369 19.4715 39.634C18.7382 38.506 17.783 36.6384 17.2046 34.037H22.3341C21.7564 36.6367 20.8022 38.5035 20.0664 39.634ZM22.6755 39.1924C23.3364 37.8892 23.9978 36.1622 24.4245 34.037H28.8551C27.5951 36.5105 25.3771 38.3847 22.6755 39.1924ZM24.7373 31.9908C24.8237 31.18 24.8846 30.3383 24.8846 29.4331C24.8846 28.5284 24.8256 27.6857 24.7402 26.8754H29.6368C29.8507 27.6977 30 28.5449 30 29.4331C30 30.3214 29.8507 31.1685 29.6368 31.9908H24.7373Z" fill="#E4202D"/>
<path d="M30 47.8486H9.53833V49.8948H30V47.8486Z" fill="#E4202D"/>
<path d="M44.2448 33.1093L43.1853 37.0621L45.1617 37.5919L46.2212 33.6391L44.2448 33.1093Z" fill="#E4202D"/>
<path d="M42.1257 41.0113L38.4189 54.8457L40.3953 55.3753L44.1021 41.5409L42.1257 41.0113Z" fill="#E4202D"/>
<path d="M55.6121 6.49556L31.895 0.140418C31.5402 0.0453993 31.1839 0 30.8334 0C29.0265 0.000127885 27.3731 1.20596 26.883 3.03421L24.744 11.0176H3.39993C2.26993 11.0176 1.35376 11.9336 1.35376 13.0638V53.9871C1.35376 55.1172 2.26993 56.0333 3.39993 56.0333H27.0333L41.3135 59.8596C41.6682 59.9546 42.0243 60 42.3751 60C44.1819 60 45.8354 58.794 46.3254 56.9658L58.506 11.5075C59.0911 9.32451 57.7952 7.0805 55.6121 6.49556ZM3.39993 53.9871V13.0638H34.0924C35.2209 13.0638 36.1386 13.9817 36.1386 15.1099V51.9409C36.1386 53.0691 35.2209 53.9871 34.0924 53.9871H3.39993ZM56.5298 10.9779L44.3492 56.4362C44.1094 57.3299 43.2977 57.954 42.3749 57.954C42.1972 57.954 42.0183 57.9302 41.8429 57.8831L34.7078 55.9712C36.6734 55.6726 38.1846 53.9903 38.1846 51.941V35.7195L39.2327 36.0004L40.2922 32.0474L38.3155 31.5179L38.1846 32.0069V15.7464C38.8225 15.9174 39.5589 16.1147 40.2727 16.306L42.6926 24.2173L44.3866 24.6713L44.2262 17.3653C45.3387 17.6635 46.4747 17.9678 47.219 18.1673L48.5343 20.4867L49.6638 20.7893L49.4695 17.5598L51.2525 14.86L50.123 14.5575L47.8245 15.9086C47.0797 15.7092 45.9442 15.4048 44.8312 15.1066L48.6233 8.8599L46.9293 8.40591L40.8782 14.0474C39.6882 13.7286 38.3899 13.3805 37.6865 13.1923C36.9972 11.904 35.6549 11.0177 34.0923 11.0177H26.8618L28.859 3.56404C29.0988 2.6705 29.9106 2.04642 30.8333 2.04629C31.011 2.04629 31.1899 2.07008 31.3653 2.11714L55.0825 8.47228C55.6106 8.61372 56.0516 8.95236 56.3249 9.42567C56.5983 9.89884 56.6711 10.4502 56.5298 10.9779Z" fill="#E4202D"/>
<path d="M43.7121 27.7007L43.1887 29.6788L45.1331 30.1933L45.6565 28.2152L43.7121 27.7007Z" fill="#E4202D"/>
<path d="M47.5956 28.7326L47.0723 30.7105L49.0167 31.225L49.54 29.2471L47.5956 28.7326Z" fill="#E4202D"/>
<path d="M39.8288 26.6722L39.3054 28.6501L41.2498 29.1646L41.7732 27.1867L39.8288 26.6722Z" fill="#E4202D"/>
</svg>
