<svg width="61" height="60" viewBox="0 0 61 60" fill="none" xmlns="http://www.w3.org/2000/svg">
<g clip-path="url(#clip0_43_10670)">
<path d="M57.7728 32.7273C56.9546 32.7273 56.4092 33.2728 56.4092 34.0909V51.8182C56.4092 52.6364 55.8637 53.1818 55.0456 53.1818H5.95455C5.13635 53.1818 4.59096 52.6363 4.59096 51.8182V34.0909C4.59096 33.2727 4.04545 32.7273 3.22736 32.7273C2.40928 32.7273 1.86377 33.2728 1.86377 34.0909V51.8182C1.86377 54.1364 3.63646 55.9091 5.95467 55.9091H55.0456C57.3638 55.9091 59.1365 54.1364 59.1365 51.8182V34.0909C59.1365 33.2727 58.591 32.7273 57.7728 32.7273Z" fill="#E4202D"/>
<path d="M56.4091 13.6364H4.5909C2.2727 13.6364 0.5 15.4091 0.5 17.7273V26.4546C0.5 28.3636 1.86359 30 3.63641 30.4091L25.0455 35.1818V39.5454C25.0455 40.3636 25.591 40.909 26.4091 40.909H34.5909C35.4091 40.909 35.9545 40.3635 35.9545 39.5454V35.1818L57.3636 30.4091C59.1364 30 60.5 28.3636 60.5 26.4545V17.7272C60.5 15.4091 58.7273 13.6364 56.4091 13.6364ZM33.2273 38.1818H27.7728V32.7273H33.2273V38.1818ZM57.7727 26.4545C57.7727 27.1363 57.3636 27.6818 56.6818 27.8181L35.9545 32.4545V31.3636C35.9545 30.5454 35.409 30 34.5909 30H26.4091C25.5909 30 25.0455 30.5455 25.0455 31.3636V32.4545L4.3182 27.8182C3.63641 27.6818 3.2273 27.1364 3.2273 26.4546V17.7273C3.2273 16.9091 3.77281 16.3637 4.5909 16.3637H56.4091C57.2273 16.3637 57.7727 16.9092 57.7727 17.7273V26.4545Z" fill="#E4202D"/>
<path d="M37.3181 4.0909H23.6817C21.3635 4.0909 19.5908 5.86359 19.5908 8.1818V9.54539C19.5908 10.3636 20.1363 10.909 20.9544 10.909C21.7725 10.909 22.318 10.3635 22.318 9.54539V8.1818C22.318 7.36359 22.8635 6.8182 23.6816 6.8182H37.318C38.1362 6.8182 38.6816 7.36371 38.6816 8.1818V9.54539C38.6816 10.3636 39.2271 10.909 40.0452 10.909C40.8634 10.909 41.4088 10.3635 41.4088 9.54539V8.1818C41.409 5.86359 39.6363 4.0909 37.3181 4.0909Z" fill="#E4202D"/>
</g>
<defs>
<clipPath id="clip0_43_10670">
<rect width="60" height="60" fill="white" transform="translate(0.5)"/>
</clipPath>
</defs>
</svg>
