<svg width="60" height="60" viewBox="0 0 60 60" fill="none" xmlns="http://www.w3.org/2000/svg">
<path d="M58.8399 35.6544L57.6899 24.1539C57.655 22.0411 56.1947 20.2689 54.2303 19.7615C54.2259 14.6967 54.2528 14.9331 54.1893 14.6993C54.1418 14.5168 54.0374 14.3221 53.8696 14.1634C53.658 13.963 55.3624 14.8581 28.208 1.27558C27.8831 1.11324 27.5008 1.11324 27.1759 1.27558L1.79133 13.9679C0.942796 14.3922 0.941757 15.6073 1.79133 16.032L10.3843 20.3285V27.6923C10.3843 28.7579 11.0334 29.6674 12.1436 30.4279C7.69857 37.3407 8.37103 46.4787 13.933 52.6927C17.4334 56.6033 22.4484 58.8462 27.6918 58.8462C32.9353 58.8462 37.9502 56.6033 41.4508 52.6927C41.4511 52.6922 41.4514 52.6918 41.4518 52.6914C47.0293 46.4594 47.6706 37.3182 43.2401 30.4279C44.3504 29.6674 44.9995 28.7579 44.9995 27.6923V20.3285L51.9226 16.8669V19.7614C49.9582 20.2688 48.4978 22.0411 48.463 24.1538L47.313 35.6543C47.245 36.3336 47.7791 36.923 48.4611 36.923H57.6918C58.3745 36.9231 58.9078 36.333 58.8399 35.6544ZM27.6918 3.5977L48.1888 13.8462H27.6918C27.0546 13.8462 26.538 14.3627 26.538 15C26.538 15.6373 27.0546 16.1539 27.6918 16.1539H48.1888C46.9913 16.7526 28.7598 25.8683 27.6918 26.4023L12.054 18.5834L4.88733 15L27.6918 3.5977ZM26.538 33.4499V39.2308H21.9403C21.9961 37.2027 22.1879 35.2329 22.5606 33.2301C23.8315 33.3472 25.1516 33.4216 26.538 33.4499ZM32.823 33.2301C33.1958 35.2477 33.3869 37.1796 33.4434 39.2308H28.8457V33.4499C30.2256 33.4217 31.5595 33.3466 32.823 33.2301ZM40.3072 50.4734C38.649 49.66 36.7433 49.0495 34.9546 48.6527C35.454 46.2729 35.7195 43.5766 35.7534 41.5386H43.8038C43.5709 44.8037 42.3551 47.9155 40.3072 50.4734ZM30.588 54.0982C30.1548 54.8385 29.5599 55.6584 28.8457 56.1404V50.2138C29.9132 50.2507 30.9119 50.3262 32.108 50.4884C31.9522 50.9994 31.104 53.2145 30.588 54.0982ZM23.2757 50.4883C24.4695 50.3267 25.4684 50.2507 26.538 50.2137V56.1403C24.9539 55.0843 23.8299 52.3047 23.2757 50.4883ZM15.0765 50.4734C13.0286 47.9155 11.8126 44.8038 11.5799 41.5385H19.6303C19.6892 43.8977 19.9504 46.3702 20.4291 48.6526C18.6203 49.0566 16.7194 49.6666 15.0765 50.4734ZM32.6836 48.2379C31.474 48.0627 30.1926 47.9472 28.8457 47.9038V41.5385H33.4448C33.3838 43.7356 33.1478 46.054 32.6836 48.2379ZM26.538 47.9038C25.1888 47.9473 23.885 48.0659 22.7001 48.2379C22.2385 46.0605 21.9997 43.7542 21.9389 41.5385H26.538V47.9038ZM20.263 32.9623C19.8873 35.031 19.6845 37.1462 19.6301 39.2308H11.5789C11.7734 36.4519 12.6694 33.8086 14.2066 31.4878C15.8746 32.1478 17.973 32.6363 20.263 32.9623ZM16.7318 52.2494C18.1057 51.6469 19.5313 51.2166 20.9863 50.8933C21.4755 52.579 22.1979 54.4364 23.1772 55.8927C20.7896 55.1962 18.5784 53.9537 16.7318 52.2494ZM34.3974 50.8933C35.8622 51.2178 37.2546 51.6399 38.6519 52.2494C36.8053 53.9537 34.594 55.1962 32.2065 55.8927C33.198 54.4056 33.9039 52.5966 34.3974 50.8933ZM43.805 39.2308H35.7536C35.7002 37.164 35.4916 34.9791 35.1208 32.9623C37.4109 32.6363 39.5092 32.1478 41.1773 31.4878C42.7143 33.8087 43.6104 36.452 43.805 39.2308ZM42.6918 27.6923C42.6918 27.8774 42.3554 28.3941 41.1203 28.9933C40.7612 29.1495 40.3343 29.3752 39.208 29.724C33.1157 31.6036 22.4964 31.661 16.1358 29.7118C15.0175 29.3639 14.4704 29.0829 14.2633 28.9932C13.0283 28.3941 12.6918 27.8774 12.6918 27.6923V21.4824L27.1758 28.7244C27.5002 28.8865 27.8823 28.8871 28.2078 28.7244L42.6918 21.4824V27.6923ZM53.0765 21.9231C54.3489 21.9231 55.3841 22.9583 55.3841 24.2308C55.3841 25.5032 54.3489 26.5385 53.0765 26.5385C51.804 26.5385 50.7688 25.5032 50.7688 24.2308C50.7688 22.9583 51.804 21.9231 53.0765 21.9231ZM49.7361 34.6154L50.399 27.9865C52.0027 29.1331 54.1498 29.1334 55.754 27.9865L56.4168 34.6154H49.7361Z" fill="#E4202D"/>
</svg>
