<svg width="61" height="60" viewBox="0 0 61 60" fill="none" xmlns="http://www.w3.org/2000/svg">
<g clip-path="url(#clip0_43_10689)">
<path d="M44.7334 40.6328C46.1699 39.5193 56.3879 31.1163 56.8226 30.76C57.2924 30.3748 57.2014 29.6293 56.6521 29.3698L54.0229 28.1328C53.5614 27.907 56.1619 19.1925 56.0246 19.6878C56.1934 19.0793 55.6511 18.5303 55.0584 18.6548C54.7509 18.718 47.6309 20.3163 47.5431 20.0148L46.5961 16.7003C46.4201 16.0783 45.6231 15.8845 45.1839 16.3698L39.2261 22.961C38.5519 23.3133 41.5609 8.41525 41.4184 9.1625C41.5489 8.47925 40.8259 7.95975 40.2211 8.27275L36.5834 10.1708C36.2036 10.2363 35.9144 10.3228 35.7244 9.97975C35.1334 8.91575 31.2154 1.57325 31.2154 1.57325C30.8969 0.986501 30.0636 0.991001 29.7521 1.5725L25.1706 10.1205C25.1706 10.1205 25.0881 10.501 24.0984 10.0023C22.4041 9.1485 20.7949 8.27225 20.7901 8.27025C20.1706 7.934 19.4504 8.4705 19.5781 9.1485C19.7309 9.97525 22.4404 23.6808 21.8509 23.086C21.6391 22.8668 18.1064 18.9578 15.7844 16.3838C15.3506 15.9043 14.5561 16.0808 14.3729 16.7063L13.4126 19.961C13.3376 20.146 13.1749 20.163 12.9784 20.1185C11.8869 19.8758 5.92787 18.5968 5.92787 18.5968C5.30512 18.4708 4.79462 19.033 4.95387 19.6265L7.14287 27.6708C7.16912 27.7683 7.17837 27.9078 7.17162 27.989C6.63412 28.2775 4.96637 29.0855 4.33537 29.3883C3.78512 29.6513 3.70112 30.3958 4.16962 30.7778L16.5516 40.9085C16.5689 40.923 16.9504 41.29 16.6684 42.2535C16.2066 43.8353 15.7976 45.2518 15.7976 45.2518C15.6336 45.8163 16.0864 46.3668 16.6864 46.3073L27.8994 44.9625C27.8031 46.7178 26.3521 57.8383 26.3521 57.8383C26.3286 58.328 26.7126 58.7163 27.1804 58.7163H33.7864C34.2564 58.7163 34.6401 58.323 34.6136 57.8435L33.1276 44.9583C33.1724 44.9605 33.2191 44.964 33.2684 44.9688C34.3431 45.0733 44.1749 46.3278 44.2821 46.3405C44.8984 46.413 45.2324 45.9855 45.2324 45.5178C45.2324 45.3688 45.1931 45.2293 45.1246 45.1083L44.2664 42.1265C44.2511 42.082 44.2246 42.0193 44.2054 41.9755C44.1274 41.8183 43.9386 41.249 44.7334 40.6328Z" stroke="#E4202D" stroke-width="2.5" stroke-linecap="round" stroke-linejoin="round"/>
</g>
<defs>
<clipPath id="clip0_43_10689">
<rect width="60" height="60" fill="white" transform="translate(0.5)"/>
</clipPath>
</defs>
</svg>
