<svg width="50" height="50" viewBox="0 0 50 50" fill="none" xmlns="http://www.w3.org/2000/svg">
<g filter="url(#filter0_d_43_10313)">
<rect x="5" y="5" width="40" height="40" rx="20" fill="#E4202D"/>
<path fill-rule="evenodd" clip-rule="evenodd" d="M23.1934 18.9599C22.8098 18.7042 22.3166 18.6804 21.9102 18.8979C21.5037 19.1154 21.25 19.539 21.25 20V30C21.25 30.461 21.5037 30.8846 21.9102 31.1021C22.3166 31.3196 22.8098 31.2958 23.1934 31.0401L30.6934 26.0401C31.0411 25.8082 31.25 25.4179 31.25 25C31.25 24.5821 31.0411 24.1918 30.6934 23.9599L23.1934 18.9599ZM27.7465 25L23.75 27.6644V22.3356L27.7465 25Z" fill="white"/>
<path fill-rule="evenodd" clip-rule="evenodd" d="M25 11.25C17.4061 11.25 11.25 17.4061 11.25 25C11.25 32.5939 17.4061 38.75 25 38.75C32.5939 38.75 38.75 32.5939 38.75 25C38.75 17.4061 32.5939 11.25 25 11.25ZM13.75 25C13.75 18.7868 18.7868 13.75 25 13.75C31.2132 13.75 36.25 18.7868 36.25 25C36.25 31.2132 31.2132 36.25 25 36.25C18.7868 36.25 13.75 31.2132 13.75 25Z" fill="white"/>
</g>
<defs>
<filter id="filter0_d_43_10313" x="0.2" y="0.2" width="49.6" height="49.6" filterUnits="userSpaceOnUse" color-interpolation-filters="sRGB">
<feFlood flood-opacity="0" result="BackgroundImageFix"/>
<feColorMatrix in="SourceAlpha" type="matrix" values="0 0 0 0 0 0 0 0 0 0 0 0 0 0 0 0 0 0 127 0" result="hardAlpha"/>
<feMorphology radius="1.6" operator="dilate" in="SourceAlpha" result="effect1_dropShadow_43_10313"/>
<feOffset/>
<feGaussianBlur stdDeviation="1.6"/>
<feComposite in2="hardAlpha" operator="out"/>
<feColorMatrix type="matrix" values="0 0 0 0 0.556863 0 0 0 0 0.109804 0 0 0 0 0.109804 0 0 0 0.5 0"/>
<feBlend mode="normal" in2="BackgroundImageFix" result="effect1_dropShadow_43_10313"/>
<feBlend mode="normal" in="SourceGraphic" in2="effect1_dropShadow_43_10313" result="shape"/>
</filter>
</defs>
</svg>
