<svg width="16" height="16" viewBox="0 0 16 16" fill="none" xmlns="http://www.w3.org/2000/svg">
<path d="M8 14C4.68629 14 2 11.3137 2 8C2 4.68629 4.68629 2 8 2C11.3137 2 14 4.68629 14 8C13.9964 11.3122 11.3122 13.9964 8 14ZM3.2 8.1032C3.22839 10.7439 5.38466 12.8657 8.02552 12.8516C10.6664 12.8373 12.7997 10.6925 12.7997 8.0516C12.7997 5.4107 10.6664 3.26586 8.02552 3.2516C5.38466 3.23747 3.22839 5.35926 3.2 8V8.1032ZM9.2 11H7.4V8.6H6.8V7.4H8.6V9.8H9.2V11ZM8.6 6.2H7.4V5H8.6V6.2Z" fill="#FF3232"/>
</svg>
